<svg id="visual" viewBox="0 0 960 300" width="960" height="300" xmlns="http://www.w3.org/2000/svg" xmlns:xlink="http://www.w3.org/1999/xlink" version="1.1"><rect x="0" y="0" width="960" height="300" fill="#FFFFFF"></rect><path d="M0 178L22.8 178.2C45.7 178.3 91.3 178.7 137 189.7C182.7 200.7 228.3 222.3 274 227.7C319.7 233 365.3 222 411.2 210.8C457 199.7 503 188.3 548.8 191.8C594.7 195.3 640.3 213.7 686 210.7C731.7 207.7 777.3 183.3 823 173.8C868.7 164.3 914.3 169.7 937.2 172.3L960 175L960 0L937.2 0C914.3 0 868.7 0 823 0C777.3 0 731.7 0 686 0C640.3 0 594.7 0 548.8 0C503 0 457 0 411.2 0C365.3 0 319.7 0 274 0C228.3 0 182.7 0 137 0C91.3 0 45.7 0 22.8 0L0 0Z" fill="#38dbdb"></path><path d="M0 144L22.8 147.7C45.7 151.3 91.3 158.7 137 165.3C182.7 172 228.3 178 274 173.3C319.7 168.7 365.3 153.3 411.2 146.5C457 139.7 503 141.3 548.8 144.2C594.7 147 640.3 151 686 153.2C731.7 155.3 777.3 155.7 823 161C868.7 166.3 914.3 176.7 937.2 181.8L960 187L960 0L937.2 0C914.3 0 868.7 0 823 0C777.3 0 731.7 0 686 0C640.3 0 594.7 0 548.8 0C503 0 457 0 411.2 0C365.3 0 319.7 0 274 0C228.3 0 182.7 0 137 0C91.3 0 45.7 0 22.8 0L0 0Z" fill="#30d0d0"></path><path d="M0 141L22.8 136.2C45.7 131.3 91.3 121.7 137 123.7C182.7 125.7 228.3 139.3 274 138.2C319.7 137 365.3 121 411.2 121C457 121 503 137 548.8 140.8C594.7 144.7 640.3 136.3 686 132.5C731.7 128.7 777.3 129.3 823 127C868.7 124.7 914.3 119.3 937.2 116.7L960 114L960 0L937.2 0C914.3 0 868.7 0 823 0C777.3 0 731.7 0 686 0C640.3 0 594.7 0 548.8 0C503 0 457 0 411.2 0C365.3 0 319.7 0 274 0C228.3 0 182.7 0 137 0C91.3 0 45.7 0 22.8 0L0 0Z" fill="#27c5c5"></path><path d="M0 78L22.8 82.3C45.7 86.7 91.3 95.3 137 97.7C182.7 100 228.3 96 274 89C319.7 82 365.3 72 411.2 75.3C457 78.7 503 95.3 548.8 103C594.7 110.7 640.3 109.3 686 105.3C731.7 101.3 777.3 94.7 823 95.5C868.7 96.3 914.3 104.7 937.2 108.8L960 113L960 0L937.2 0C914.3 0 868.7 0 823 0C777.3 0 731.7 0 686 0C640.3 0 594.7 0 548.8 0C503 0 457 0 411.2 0C365.3 0 319.7 0 274 0C228.3 0 182.7 0 137 0C91.3 0 45.7 0 22.8 0L0 0Z" fill="#1dbaba"></path><path d="M0 50L22.8 53.2C45.7 56.3 91.3 62.7 137 64.2C182.7 65.7 228.3 62.3 274 55.3C319.7 48.3 365.3 37.7 411.2 35.8C457 34 503 41 548.8 41.8C594.7 42.7 640.3 37.3 686 41.3C731.7 45.3 777.3 58.7 823 60C868.7 61.3 914.3 50.7 937.2 45.3L960 40L960 0L937.2 0C914.3 0 868.7 0 823 0C777.3 0 731.7 0 686 0C640.3 0 594.7 0 548.8 0C503 0 457 0 411.2 0C365.3 0 319.7 0 274 0C228.3 0 182.7 0 137 0C91.3 0 45.7 0 22.8 0L0 0Z" fill="#10afaf"></path></svg>